<svg
	xmlns="http://www.w3.org/2000/svg"
	xml:space="preserve"
	viewBox="0 0 281.52601 235.63"
	version="1.1"
	style="fill: #fff;"
>
	<g transform="translate(-85.679976,1.7641185e-4)" id="g6">
		<g id="g4">
			<path
				d="m 181.956,102.43 c -17.275,0 -31.28,14.005 -31.28,31.28 0.044,17.257 14.023,31.236 31.28,31.28 17.275,0 31.28,-14.005 31.28,-31.28 0,-17.275 -14.005,-31.28 -31.28,-31.28 z m 0,46.48 c -8.439,0 -15.28,-6.841 -15.28,-15.28 0,-8.439 6.841,-15.28 15.28,-15.28 8.439,0 15.28,6.841 15.28,15.28 0,8.439 -6.841,15.28 -15.28,15.28 z"
				id="path2"
			/>
		</g>
	</g>
	<g transform="translate(-85.679976,1.7641185e-4)" id="g12">
		<g id="g10">
			<path
				d="m 271.076,102.43 c -17.275,0 -31.28,14.005 -31.28,31.28 0.044,17.257 14.023,31.236 31.28,31.28 17.276,0 31.28,-14.005 31.28,-31.28 0,-17.275 -14.005,-31.28 -31.28,-31.28 z m 0,46.48 c -8.439,0 -15.28,-6.841 -15.28,-15.28 0,-8.439 6.841,-15.28 15.28,-15.28 8.439,0 15.28,6.841 15.28,15.28 0,8.439 -6.841,15.28 -15.28,15.28 z"
				id="path8"
			/>
		</g>
	</g>
	<g transform="translate(-85.679976,1.7641185e-4)" id="g18">
		<g id="g16">
			<path
				d="m 366.525,138.427 c -3.332,-18.73 -18.424,-33.137 -37.289,-35.597 -5.2,-19.04 -20.08,-35.2 -49.84,-35.2 h -44.88 V 50.91 C 248.225,46.492 255.757,31.796 251.339,18.087 246.92,4.378 232.225,-3.154 218.516,1.264 c -13.709,4.418 -21.241,19.113 -16.823,32.823 2.574,7.988 8.835,14.248 16.823,16.823 v 16 h -44.96 c -21.04,0 -43.28,9.68 -50,35.2 -23.871,3.164 -40.657,25.08 -37.493,48.951 2.499,18.851 16.926,33.908 35.653,37.209 v 0.72 c 2.48,34.24 27.92,46.64 51.84,46.64 h 105.84 c 35.68,0 50,-23.2 51.84,-46.64 23.707,-4.218 39.507,-26.856 35.289,-50.563 z M 121.476,172.43 c -14.558,-4.366 -22.82,-19.708 -18.454,-34.266 2.658,-8.863 9.592,-15.796 18.454,-18.454 z m 94.88,-145.52 c -0.221,-5.563 4.11,-10.251 9.672,-10.472 5.562,-0.221 10.251,4.11 10.472,9.672 0.221,5.563 -4.11,10.251 -9.672,10.472 -0.104,0.004 -0.208,0.007 -0.312,0.008 -5.429,0.006 -9.904,-4.257 -10.16,-9.68 z m 99.12,156.8 c 0,13.52 -4.72,36.08 -36.08,36.08 h -105.84 c -13.52,0 -36.08,-4.72 -36.08,-36.08 v -64 c 0,-31.44 22.64,-36.08 36.08,-36.08 h 105.84 c 31.44,0 36.08,22.64 36.08,36.08 z m 34.534,-29.735 c -2.658,8.863 -9.592,15.796 -18.454,18.454 v -52.72 c 14.558,4.367 22.82,19.708 18.454,34.266 z"
				id="path14"
			/>
		</g>
	</g>
	<g transform="translate(-85.679976,1.7641185e-4)" id="g24">
		<g id="g22">
			<path
				d="m 271.076,185.79 h -89.12 c -4.418,0 -8,3.582 -8,8 0,4.418 3.582,8 8,8 h 89.12 c 4.418,0 8,-3.582 8,-8 0,-4.418 -3.582,-8 -8,-8 z"
				id="path20"
			/>
		</g>
	</g>
</svg>
