<?xml version="1.0" encoding="UTF-8" standalone="no"?>
<svg
	xmlns="http://www.w3.org/2000/svg"
	id="svg8"
	version="1.1"
	viewBox="0 0 6.6145831 10.583333"
	height="40"
	width="25"
>
	<g id="layer1">
		<path
			d="M 6.5625754,3.5580631 C 3.3540904,10.274195 3.353101,10.276264 3.353101,10.276264 l -0.037154,-0.0056 v 0 0 M 0.05185068,3.5453478 C 3.316169,10.280529 3.3171756,10.282604 3.3171756,10.282604 l 0.035926,-0.0063 v 0 0 M 0.07065687,3.5326148 a 3.2393502,3.2393502 0 0 1 1.61967523,-2.8053596 3.2393502,3.2393502 0 0 1 3.2393502,9e-8 3.2393502,3.2393502 0 0 1 1.6196751,2.80535951"
			style="
				fill: #cccccc;
				stroke: #000000;
				stroke-width: 0.128764;
				stroke-linecap: butt;
				stroke-linejoin: miter;
				stroke-miterlimit: 4;
				stroke-dasharray: none;
				stroke-opacity: 1;
			"
			id="path855"
		/>
		<circle
			r="1.9001193"
			cy="3.0196714"
			cx="3.3657568"
			id="token-color-circle"
			style="
				opacity: 1;
				fill-opacity: 1;
				stroke: #000000;
				stroke-width: 0.185208;
				stroke-linecap: square;
				stroke-linejoin: bevel;
				stroke-miterlimit: 4;
				stroke-dasharray: none;
				stroke-opacity: 1;
                fill: #ffff00;
				paint-order: markers stroke fill;
			"
		/>
		<path
			transform="scale(0.26458333)"
			id="path947"
			d="m 6.5332224,25.884179 c -3.3257019,-6.860511 -6.05141807,-12.485511 -6.05714724,-12.5 -0.005729,-0.01449 1.10590864,-0.02634 2.47030624,-0.02634 h 2.4807229 l 0.1005778,0.328602 c 0.6247891,2.041276 2.2177385,3.804616 4.2029969,4.652571 2.852246,1.218268 6.138431,0.59038 8.319426,-1.589583 0.882392,-0.881975 1.597789,-2.080665 1.908279,-3.197435 l 0.05398,-0.194155 h 2.274439 2.274438 l -0.273704,0.570313 c -0.150537,0.313672 -2.83813,5.938672 -5.972427,12.5 -3.134298,6.561328 -5.70692,11.929687 -5.71694,11.929687 -0.01002,0 -2.739246,-5.613146 -6.0649476,-12.473658 z"
			style="
				fill: #cccccc;
				stroke: none;
				stroke-width: 0.03125;
				fill-opacity: 1;
			"
		/>
	</g>
</svg>